<?xml version="1.0" standalone="no"?>
<!DOCTYPE svg PUBLIC "-//W3C//DTD SVG 20010904//EN"
 "http://www.w3.org/TR/2001/REC-SVG-20010904/DTD/svg10.dtd">
<svg version="1.0" xmlns="http://www.w3.org/2000/svg"
 width="197.000000pt" height="131.000000pt" viewBox="0 0 197.000000 131.000000"
 preserveAspectRatio="xMidYMid meet">

<g transform="translate(0.000000,131.000000) scale(0.100000,-0.100000)"
fill="#000000" stroke="none">
<path d="M0 1215 c0 -69 3 -95 13 -95 8 0 7 -4 -3 -10 -10 -7 36 -10 144 -8
117 1 161 -1 164 -10 2 -7 8 -10 13 -6 5 3 15 2 21 -2 18 -11 48 -12 48 -2 0
4 5 8 11 8 5 0 8 -4 5 -9 -10 -16 37 -21 139 -14 59 3 115 1 137 -5 23 -6 40
-7 44 -1 9 15 34 10 34 -6 0 -10 10 -15 31 -15 36 0 72 -17 64 -30 -3 -6 3
-20 14 -32 22 -23 28 -48 11 -48 -5 0 -10 -4 -10 -10 0 -5 18 -10 40 -10 28 0
40 4 40 14 0 28 55 34 120 14 34 -11 40 -17 40 -40 0 -23 5 -28 23 -28 13 0
29 -6 35 -12 10 -10 14 -10 20 -1 5 8 28 12 59 10 33 -1 46 -5 37 -10 -8 -5
-12 -12 -9 -18 5 -7 -48 -15 -77 -10 -11 1 -20 -37 -13 -59 5 -16 2 -20 -17
-20 -18 0 -20 -2 -8 -9 8 -6 18 -7 24 -4 5 4 7 -1 3 -10 -5 -13 -1 -15 22 -11
22 5 32 0 48 -20 16 -20 29 -26 59 -25 22 0 93 -4 159 -9 117 -8 101 -14 -40
-15 -62 0 -65 -1 -30 -8 22 -4 74 -8 115 -9 53 0 71 -3 60 -10 -13 -9 -13 -11
0 -20 8 -5 32 -10 52 -10 40 0 60 -14 25 -18 -60 -7 -369 -1 -497 9 -80 7
-203 14 -275 16 -243 6 -420 13 -442 18 -27 6 -29 23 -5 42 16 13 16 13 -3 11
-11 -1 -24 0 -30 4 -16 9 -76 -3 -72 -16 2 -6 18 -11 35 -11 56 0 42 -20 -14
-22 -36 -2 -54 1 -54 9 0 9 -3 9 -12 0 -15 -15 -28 -16 -28 -2 0 6 10 15 23
20 12 5 16 9 10 9 -7 1 -13 6 -13 12 0 5 5 7 12 3 6 -4 8 -3 5 4 -4 5 -4 17
-1 26 5 13 9 14 20 5 10 -8 14 -8 14 0 0 6 7 11 16 11 8 0 13 -4 9 -9 -3 -5
-1 -12 5 -16 5 -3 10 0 10 9 0 8 4 16 10 18 12 4 21 68 9 68 -5 0 -9 -6 -9
-14 0 -17 -27 -29 -35 -16 -4 6 0 10 8 10 16 0 31 45 21 61 -3 6 -12 8 -20 5
-8 -3 -19 4 -25 15 -6 12 -17 18 -25 15 -13 -5 -15 0 -13 21 2 17 -38 18 -65
2 -22 -13 -33 -15 -43 -7 -10 8 -13 6 -14 -8 -1 -11 -1 -22 0 -26 0 -5 -10 -8
-24 -8 -32 0 -33 -27 -2 -40 l22 -9 -22 0 c-12 -1 -26 -9 -32 -18 -8 -15 -11
-15 -27 -3 -10 8 -15 10 -11 3 4 -6 -3 -20 -17 -30 -23 -19 -24 -20 -5 -32 21
-12 43 -6 34 10 -3 5 1 6 9 3 9 -3 13 -11 9 -16 -4 -7 4 -9 23 -5 21 4 35 0
50 -14 20 -19 21 -19 20 0 -1 11 3 19 9 18 5 -1 8 -10 7 -19 -2 -9 6 -22 17
-28 23 -12 25 -18 12 -39 -8 -13 -12 -13 -27 0 -10 8 -15 9 -11 3 7 -12 -62
-24 -140 -24 -59 0 -73 -8 -73 -40 0 -27 1 -27 42 -20 24 5 66 4 94 0 29 -5
60 -7 71 -4 25 6 47 -11 40 -30 -5 -13 -23 -15 -109 -12 -57 2 -111 7 -122 11
-14 6 -18 5 -14 -6 2 -8 19 -15 36 -17 18 -2 32 -7 32 -12 0 -5 -16 -7 -35 -5
-20 3 -35 0 -35 -5 0 -6 11 -10 25 -10 14 0 25 -4 25 -10 0 -5 -11 -10 -25
-10 l-25 0 0 -215 0 -215 985 0 985 0 0 655 0 655 -985 0 -985 0 0 -95z m690
-21 c0 -8 -5 -12 -10 -9 -6 4 -8 11 -5 16 9 14 15 11 15 -7z m-222 -72 c2 -7
-6 -12 -17 -12 -21 0 -27 11 -14 24 9 9 26 2 31 -12z m872 -238 c0 -8 -4 -14
-10 -14 -5 0 -10 9 -10 21 0 11 5 17 10 14 6 -3 10 -13 10 -21z m160 -19 c0
-13 -29 -29 -38 -20 -3 3 0 5 6 5 7 0 12 9 12 21 0 11 5 17 10 14 6 -3 10 -12
10 -20z m-1266 -16 c-8 -14 -24 -10 -24 6 0 9 6 12 15 9 8 -4 12 -10 9 -15z
m1106 1 c0 -5 -2 -10 -4 -10 -2 0 -12 -3 -22 -7 -16 -6 -17 -5 -4 10 17 19 30
22 30 7z m-1098 -32 c-6 -6 -15 -8 -19 -4 -4 4 -1 11 7 16 19 12 27 3 12 -12z
m74 -36 c-4 -3 -14 2 -24 12 -16 18 -16 18 6 6 13 -6 21 -14 18 -18z m-112 -4
c-3 -10 0 -26 8 -35 12 -15 11 -15 -11 -3 -21 11 -23 10 -18 -4 7 -19 -9 -22
-16 -3 -4 9 -8 8 -16 -3 -8 -12 -13 -12 -23 -2 -16 16 1 34 34 36 15 1 22 7
20 17 -1 9 5 16 13 16 10 0 13 -6 9 -19z m56 -14 c0 -8 -6 -14 -12 -14 -8 0
-5 -7 6 -15 11 -8 17 -18 13 -21 -4 -4 -2 -13 4 -21 9 -10 8 -13 0 -13 -7 0
-9 -4 -6 -10 3 -5 1 -10 -5 -10 -7 0 -9 9 -5 23 5 17 4 18 -4 7 -5 -8 -14 -11
-18 -6 -4 4 -1 13 8 19 14 10 14 14 2 25 -7 7 -11 17 -8 23 4 5 -1 9 -9 9 -19
0 -21 16 -3 23 18 6 37 -3 37 -19z m60 -24 c0 -5 -2 -10 -4 -10 -3 0 -8 5 -11
10 -3 6 -1 10 4 10 6 0 11 -4 11 -10z m36 -237 c-3 -3 -27 -6 -53 -8 -46 -3
-47 -2 -19 10 25 11 84 9 72 -2z m-183 -50 c-7 -2 -13 -19 -13 -35 0 -27 -13
-33 -16 -7 -1 5 -2 13 -3 17 0 4 -16 7 -33 7 -48 -1 -59 9 -18 16 43 8 100 9
83 2z m90 -4 c18 -1 24 -3 14 -6 -9 -2 -14 -9 -10 -15 4 -8 0 -9 -11 -5 -10 4
-19 1 -22 -8 -4 -8 -12 -15 -20 -15 -17 0 -18 17 -1 23 6 2 9 7 6 11 -11 11
-40 -6 -35 -20 3 -8 1 -14 -4 -14 -6 0 -10 9 -10 20 0 11 7 20 15 20 8 0 15 5
15 11 0 6 7 8 16 5 9 -3 30 -7 47 -7z m152 -9 c26 -1 27 -3 10 -9 -11 -5 -28
-4 -39 1 -10 6 -21 6 -25 2 -3 -5 -24 -10 -46 -10 -22 -1 -30 1 -17 3 12 2 20
8 18 12 -3 4 12 7 32 5 20 -1 51 -3 67 -4z m-305 -15 c0 -2 -10 -10 -22 -16
-21 -11 -22 -11 -9 4 13 16 31 23 31 12z m-55 -35 c3 -5 1 -10 -4 -10 -6 0
-11 5 -11 10 0 6 2 10 4 10 3 0 8 -4 11 -10z m275 -220 c0 -5 -2 -10 -4 -10
-3 0 -8 5 -11 10 -3 6 -1 10 4 10 6 0 11 -4 11 -10z"/>
<path d="M70 680 c-8 -5 -12 -12 -9 -15 4 -3 12 1 19 10 14 17 11 19 -10 5z"/>
</g>
</svg>
